<?xml version="1.0" encoding="UTF-8"?>
<svg xmlns="http://www.w3.org/2000/svg" xmlns:xlink="http://www.w3.org/1999/xlink" width="45pt" height="63pt" viewBox="0 0 45 63" version="1.1">
<g id="surface1">
<path style="fill:none;stroke-width:2;stroke-linecap:round;stroke-linejoin:round;stroke:rgb(0%,0%,0%);stroke-opacity:1;stroke-miterlimit:4;" d="M 289.708993 466.475714 L 345.593542 482.948929 L 397.065764 465.597738 " transform="matrix(0.264706,0,0,0.2625,-68.394706,-94.418625)"/>
<path style="fill:none;stroke-width:2;stroke-linecap:round;stroke-linejoin:round;stroke:rgb(0%,0%,0%);stroke-opacity:1;stroke-miterlimit:4;" d="M 304.997187 576.192976 L 345.888681 515.895357 L 377.645625 575.597738 " transform="matrix(0.264706,0,0,0.2625,-68.394706,-94.418625)"/>
<path style="fill:none;stroke-width:2;stroke-linecap:round;stroke-linejoin:round;stroke:rgb(0%,0%,0%);stroke-opacity:1;stroke-miterlimit:4;" d="M 345.903437 515.999524 L 345.903437 451.639405 " transform="matrix(0.264706,0,0,0.2625,-68.394706,-94.418625)"/>
<path style="fill:none;stroke-width:2;stroke-linecap:round;stroke-linejoin:round;stroke:rgb(0%,0%,0%);stroke-opacity:1;stroke-miterlimit:100;" d="M 361.505299 429.944262 C 361.564326 442.25081 354.480993 453.649619 342.911549 459.825214 C 331.356861 466.00081 317.086896 466.00081 305.517451 459.825214 C 293.962764 453.649619 286.864674 442.25081 286.938458 429.944262 C 286.864674 417.622833 293.962764 406.224024 305.517451 400.048429 C 317.086896 393.872833 331.356861 393.872833 342.911549 400.048429 C 354.480993 406.224024 361.564326 417.622833 361.505299 429.944262 Z M 361.505299 429.944262 " transform="matrix(0.264706,0,0,0.2625,-62.477735,-97.676775)"/>
<path style="fill:none;stroke-width:2;stroke-linecap:round;stroke-linejoin:round;stroke:rgb(0%,0%,0%);stroke-opacity:1;stroke-miterlimit:100;" d="M 330.175347 429.936024 C 330.190104 432.078881 329.053819 434.058048 327.209201 435.129476 C 325.364583 436.200905 323.077257 436.200905 321.232639 435.129476 C 319.388021 434.058048 318.251736 432.078881 318.266493 429.936024 C 318.251736 427.808048 319.388021 425.828881 321.232639 424.757452 C 323.077257 423.671143 325.364583 423.671143 327.209201 424.757452 C 329.053819 425.828881 330.190104 427.808048 330.175347 429.936024 Z M 330.175347 429.936024 " transform="matrix(0.264706,0,0,0.2625,-64.985294,-99.471488)"/>
<path style="fill:none;stroke-width:2;stroke-linecap:round;stroke-linejoin:round;stroke:rgb(0%,0%,0%);stroke-opacity:1;stroke-miterlimit:100;" d="M 330.184056 429.936024 C 330.198812 432.078881 329.062528 434.058048 327.203153 435.129476 C 325.358535 436.200905 323.085965 436.200905 321.22659 435.129476 C 319.381972 434.058048 318.245687 432.078881 318.260444 429.936024 C 318.245687 427.808048 319.381972 425.828881 321.22659 424.757452 C 323.085965 423.671143 325.358535 423.671143 327.203153 424.757452 C 329.062528 425.828881 330.198812 427.808048 330.184056 429.936024 Z M 330.184056 429.936024 " transform="matrix(0.264706,0,0,0.2625,-59.807912,-99.471488)"/>
<path style="fill:none;stroke-width:2;stroke-linecap:round;stroke-linejoin:round;stroke:rgb(0%,0%,0%);stroke-opacity:1;stroke-miterlimit:100;" d="M 344.35256 455.714002 C 332.818555 466.207001 315.998578 466.321432 304.348948 455.952381 " transform="matrix(0.264576,-0.00820129,0.00827021,0.262371,-65.907582,-98.6328)"/>
</g>
</svg>
